<?xml version="1.0" standalone="no"?>
<!DOCTYPE svg PUBLIC "-//W3C//DTD SVG 20010904//EN"
 "http://www.w3.org/TR/2001/REC-SVG-20010904/DTD/svg10.dtd">
<svg version="1.0" xmlns="http://www.w3.org/2000/svg"
 width="2045.000000pt" height="1274.000000pt" viewBox="0 0 2045.000000 1274.000000"
 preserveAspectRatio="xMidYMid meet">

<g transform="translate(0.000000,1274.000000) scale(0.100000,-0.100000)"
fill="#002c5e" stroke="none">
<path d="M10150 12729 c-2875 -103 -5532 -867 -7445 -2142 -729 -486 -1344
-1051 -1778 -1632 -525 -703 -819 -1413 -909 -2195 -19 -174 -17 -640 5 -820
60 -488 181 -893 402 -1345 385 -787 1019 -1517 1875 -2159 1730 -1297 4212
-2143 6965 -2376 474 -40 756 -52 1341 -57 1058 -10 1883 44 2849 188 2766
410 5170 1471 6635 2929 149 148 340 353 340 365 0 3 -42 -30 -92 -73 -790
-669 -1814 -1240 -2983 -1662 -1272 -459 -2694 -746 -4160 -840 -704 -45
-1577 -43 -2275 5 -2467 172 -4718 866 -6355 1960 -440 294 -791 579 -1125
914 -794 798 -1247 1671 -1345 2596 -19 180 -19 529 0 710 140 1319 993 2532
2479 3525 1416 946 3339 1605 5436 1864 1005 124 1929 155 3070 102 142 -7
114 -1 -143 29 -897 105 -1896 146 -2787 114z"/>
<path d="M11920 9259 c-188 -8 -380 -23 -552 -41 l-108 -11 0 -263 0 -264 23
-4 c12 -3 58 -8 102 -11 89 -7 374 -42 418 -51 l27 -6 0 -1778 0 -1779 -32 -5
c-18 -3 -81 -10 -139 -16 -93 -9 -293 -39 -371 -56 l-28 -6 0 -269 0 -269 915
0 915 0 0 274 0 273 -57 16 c-32 9 -114 24 -183 33 -69 9 -135 18 -147 20
l-23 4 0 522 0 521 573 -789 c315 -434 586 -808 602 -831 l30 -43 553 0 552 0
0 275 0 275 -22 5 c-59 13 -311 54 -376 61 -73 7 -74 7 -110 54 -219 279 -848
1092 -850 1099 -2 5 147 170 329 367 183 198 369 399 414 447 l81 88 115 15
c63 8 157 24 211 34 53 11 99 20 102 20 3 0 6 124 6 275 l0 275 -885 0 -885 0
0 -274 0 -274 63 -15 c34 -9 101 -21 150 -28 48 -7 87 -15 87 -19 0 -3 -138
-167 -306 -365 -169 -198 -334 -393 -368 -433 l-61 -73 -3 1516 -2 1515 -293
-2 c-160 0 -371 -5 -467 -9z"/>
<path d="M6271 8930 c-623 -60 -1116 -298 -1451 -700 -314 -376 -487 -880
-520 -1516 -27 -530 53 -992 237 -1359 283 -564 803 -892 1541 -970 160 -17
508 -19 672 -4 154 14 348 43 495 75 129 28 356 91 367 102 5 6 -40 781 -47
789 0 2 -44 -13 -96 -31 -116 -42 -349 -100 -484 -122 -153 -24 -493 -30 -641
-10 -662 87 -1007 465 -1084 1188 -14 137 -12 462 5 598 44 363 161 649 350
858 73 80 154 142 259 198 170 90 317 124 540 124 180 0 419 -33 435 -59 4 -6
12 -59 19 -118 7 -59 25 -180 40 -268 l27 -160 328 -3 327 -2 -2 642 -3 643
-165 32 c-264 51 -498 75 -795 78 -143 2 -302 0 -354 -5z"/>
<path d="M9252 7765 c-554 -84 -985 -401 -1222 -898 -134 -280 -188 -572 -177
-952 11 -355 66 -605 187 -845 200 -395 542 -619 1050 -686 176 -23 492 -15
643 15 328 67 595 208 823 435 259 260 411 565 481 971 24 143 25 545 0 705
-59 387 -186 665 -399 879 -187 188 -430 307 -749 367 -118 23 -511 28 -637 9z
m423 -720 c269 -70 426 -275 491 -640 25 -141 25 -461 0 -600 -41 -227 -121
-399 -246 -525 -129 -129 -280 -190 -471 -190 -355 0 -586 192 -678 562 -37
149 -45 229 -45 438 0 228 17 341 74 489 98 254 290 426 529 477 82 17 262 11
346 -11z"/>
<path d="M16565 7765 c-446 -73 -801 -284 -1060 -632 -73 -98 -188 -322 -234
-454 -71 -206 -101 -412 -101 -686 0 -728 244 -1219 728 -1462 234 -118 500
-167 850 -159 300 8 477 50 727 173 592 292 930 926 902 1690 -20 526 -162
905 -439 1171 -186 178 -402 284 -703 344 -144 29 -529 38 -670 15z m430 -720
c100 -26 199 -81 268 -150 164 -166 238 -405 240 -780 1 -194 -8 -285 -44
-427 -94 -376 -350 -598 -689 -598 -408 0 -637 232 -712 720 -17 114 -17 453
1 550 59 329 230 566 477 662 40 15 97 32 126 38 72 12 260 5 333 -15z"/>
</g>
</svg>
